<svg width="415" height="415" viewBox="0 0 415 415" fill="none" xmlns="http://www.w3.org/2000/svg">
<path d="M222.477 15.7148C222.477 24.3939 215.441 31.4297 206.762 31.4297C198.083 31.4297 191.047 24.3939 191.047 15.7148C191.047 7.03577 198.083 0 206.762 0C215.441 0 222.477 7.03577 222.477 15.7148Z" fill="white"/>
<path d="M149.235 30.4756C149.235 39.1546 142.199 46.1904 133.52 46.1904C124.841 46.1904 117.805 39.1546 117.805 30.4756C117.805 21.7965 124.841 14.7607 133.52 14.7607C142.199 14.7607 149.235 21.7965 149.235 30.4756Z" fill="white"/>
<path d="M185.622 43.0661C185.622 50.5776 179.533 56.6669 172.021 56.6669C164.51 56.6669 158.42 50.5776 158.42 43.0661C158.42 35.5546 164.51 29.4653 172.021 29.4653C179.533 29.4653 185.622 35.5546 185.622 43.0661Z" fill="white"/>
<path d="M125.475 69.033C125.475 76.5445 119.386 82.6338 111.875 82.6338C104.363 82.6338 98.2738 76.5445 98.2738 69.033C98.2738 61.5215 104.363 55.4322 111.875 55.4322C119.386 55.4322 125.475 61.5215 125.475 69.033Z" fill="white"/>
<path d="M132.472 106.73C137.638 106.73 141.826 102.542 141.826 97.3758C141.826 92.2097 137.638 88.0218 132.472 88.0218C127.306 88.0218 123.118 92.2097 123.118 97.3758C123.118 102.542 127.306 106.73 132.472 106.73Z" fill="white"/>
<path d="M79.8463 116.047C79.8463 123.558 73.757 129.647 66.2455 129.647C58.734 129.647 52.6447 123.558 52.6447 116.047C52.6447 108.535 58.734 102.446 66.2455 102.446C73.757 102.446 79.8463 108.535 79.8463 116.047Z" fill="white"/>
<path d="M96.1224 143.697C101.288 143.697 105.476 139.509 105.476 134.343C105.476 129.177 101.288 124.989 96.1224 124.989C90.9563 124.989 86.7683 129.177 86.7683 134.343C86.7683 139.509 90.9563 143.697 96.1224 143.697Z" fill="white"/>
<path d="M55.6941 176.942C55.6941 184.453 49.6048 190.542 42.0933 190.542C34.5818 190.542 28.4925 184.453 28.4925 176.942C28.4925 169.43 34.5818 163.341 42.0933 163.341C49.6048 163.341 55.6941 169.43 55.6941 176.942Z" fill="white"/>
<path d="M76.6846 191.758C81.8507 191.758 86.0387 187.57 86.0387 182.404C86.0387 177.238 81.8507 173.05 76.6846 173.05C71.5185 173.05 67.3306 177.238 67.3306 182.404C67.3306 187.57 71.5185 191.758 76.6846 191.758Z" fill="white"/>
<path d="M77.1336 243.599C82.2997 243.599 86.4877 239.411 86.4877 234.245C86.4877 229.078 82.2997 224.89 77.1336 224.89C71.9675 224.89 67.7796 229.078 67.7796 234.245C67.7796 239.411 71.9675 243.599 77.1336 243.599Z" fill="white"/>
<path d="M97.3759 291.342C102.542 291.342 106.73 287.154 106.73 281.988C106.73 276.822 102.542 272.634 97.3759 272.634C92.2098 272.634 88.0218 276.822 88.0218 281.988C88.0218 287.154 92.2098 291.342 97.3759 291.342Z" fill="white"/>
<path d="M134.343 327.692C139.509 327.692 143.697 323.504 143.697 318.338C143.697 313.172 139.509 308.984 134.343 308.984C129.177 308.984 124.989 313.172 124.989 318.338C124.989 323.504 129.177 327.692 134.343 327.692Z" fill="white"/>
<path d="M191.758 337.757C191.758 342.923 187.57 347.111 182.404 347.111C177.238 347.111 173.05 342.923 173.05 337.757C173.05 332.591 177.238 328.403 182.404 328.403C187.57 328.403 191.758 332.591 191.758 337.757Z" fill="white"/>
<path d="M190.542 372.367C190.542 379.878 184.453 385.968 176.942 385.968C169.43 385.968 163.341 379.878 163.341 372.367C163.341 364.855 169.43 358.766 176.942 358.766C184.453 358.766 190.542 364.855 190.542 372.367Z" fill="white"/>
<path d="M208.577 370.14C214.373 370.14 219.072 365.442 219.072 359.645C219.072 353.849 214.373 349.15 208.577 349.15C202.781 349.15 198.082 353.849 198.082 359.645C198.082 365.442 202.781 370.14 208.577 370.14Z" fill="white"/>
<path d="M223.394 398.745C223.394 407.424 216.358 414.46 207.679 414.46C199 414.46 191.964 407.424 191.964 398.745C191.964 390.066 199 383.03 207.679 383.03C216.358 383.03 223.394 390.066 223.394 398.745Z" fill="white"/>
<path d="M129.647 348.196C129.647 355.707 123.558 361.797 116.047 361.797C108.535 361.797 102.446 355.707 102.446 348.196C102.446 340.684 108.535 334.595 116.047 334.595C123.558 334.595 129.647 340.684 129.647 348.196Z" fill="white"/>
<path d="M150.151 359.065C155.948 359.065 160.647 354.366 160.647 348.57C160.647 342.774 155.948 338.075 150.151 338.075C144.355 338.075 139.656 342.774 139.656 348.57C139.656 354.366 144.355 359.065 150.151 359.065Z" fill="white"/>
<path d="M150.077 384.34C150.077 393.019 143.041 400.055 134.362 400.055C125.683 400.055 118.647 393.019 118.647 384.34C118.647 375.661 125.683 368.625 134.362 368.625C143.041 368.625 150.077 375.661 150.077 384.34Z" fill="white"/>
<path d="M82.6338 302.585C82.6338 310.097 76.5445 316.186 69.033 316.186C61.5215 316.186 55.4322 310.097 55.4322 302.585C55.4322 295.074 61.5215 288.985 69.033 288.985C76.5445 288.985 82.6338 295.074 82.6338 302.585Z" fill="white"/>
<path d="M100.407 326.457C106.203 326.457 110.902 321.758 110.902 315.962C110.902 310.165 106.203 305.466 100.407 305.466C94.6102 305.466 89.9113 310.165 89.9113 315.962C89.9113 321.758 94.6102 326.457 100.407 326.457Z" fill="white"/>
<path d="M87.8534 342.976C87.8534 351.655 80.8176 358.691 72.1386 358.691C63.4595 358.691 56.4237 351.655 56.4237 342.976C56.4237 334.297 63.4595 327.261 72.1386 327.261C80.8176 327.261 87.8534 334.297 87.8534 342.976Z" fill="white"/>
<path d="M56.6669 242.439C56.6669 249.95 50.5776 256.04 43.0661 256.04C35.5546 256.04 29.4653 249.95 29.4653 242.439C29.4653 234.927 35.5546 228.838 43.0661 228.838C50.5776 228.838 56.6669 234.927 56.6669 242.439Z" fill="white"/>
<path d="M66.919 277.311C72.7154 277.311 77.4142 272.612 77.4142 266.815C77.4142 261.019 72.7154 256.32 66.919 256.32C61.1226 256.32 56.4237 261.019 56.4237 266.815C56.4237 272.612 61.1226 277.311 66.919 277.311Z" fill="white"/>
<path d="M46.1904 280.94C46.1904 289.619 39.1546 296.655 30.4756 296.655C21.7965 296.655 14.7607 289.619 14.7607 280.94C14.7607 272.261 21.7965 265.225 30.4756 265.225C39.1546 265.225 46.1904 272.261 46.1904 280.94Z" fill="white"/>
<path d="M54.8148 219.072C60.6112 219.072 65.3101 214.373 65.3101 208.577C65.3101 202.781 60.6112 198.082 54.8148 198.082C49.0185 198.082 44.3196 202.781 44.3196 208.577C44.3196 214.373 49.0185 219.072 54.8148 219.072Z" fill="white"/>
<path d="M31.4297 207.679C31.4297 216.358 24.3939 223.394 15.7148 223.394C7.03577 223.394 0 216.358 0 207.679C0 199 7.03577 191.964 15.7148 191.964C24.3939 191.964 31.4297 199 31.4297 207.679Z" fill="white"/>
<path d="M65.8901 160.647C71.6864 160.647 76.3853 155.948 76.3853 150.151C76.3853 144.355 71.6864 139.656 65.8901 139.656C60.0937 139.656 55.3948 144.355 55.3948 150.151C55.3948 155.948 60.0937 160.647 65.8901 160.647Z" fill="white"/>
<path d="M45.8349 134.362C45.8349 143.041 38.7992 150.077 30.1201 150.077C21.441 150.077 14.4053 143.041 14.4053 134.362C14.4053 125.683 21.441 118.647 30.1201 118.647C38.7992 118.647 45.8349 125.683 45.8349 134.362Z" fill="white"/>
<path d="M98.4983 110.902C104.295 110.902 108.994 106.203 108.994 100.407C108.994 94.6102 104.295 89.9113 98.4983 89.9113C92.702 89.9113 88.0031 94.6102 88.0031 100.407C88.0031 106.203 92.702 110.902 98.4983 110.902Z" fill="white"/>
<path d="M87.1986 72.1386C87.1986 80.8176 80.1628 87.8534 71.4838 87.8534C62.8047 87.8534 55.7689 80.8176 55.7689 72.1386C55.7689 63.4595 62.8047 56.4237 71.4838 56.4237C80.1628 56.4237 87.1986 63.4595 87.1986 72.1386Z" fill="white"/>
<path d="M180.197 86.4877C185.363 86.4877 189.551 82.2997 189.551 77.1336C189.551 71.9675 185.363 67.7796 180.197 67.7796C175.031 67.7796 170.843 71.9675 170.843 77.1336C170.843 82.2997 175.031 86.4877 180.197 86.4877Z" fill="white"/>
<path d="M147.645 77.4143C153.441 77.4143 158.14 72.7154 158.14 66.919C158.14 61.1226 153.441 56.4237 147.645 56.4237C141.848 56.4237 137.149 61.1226 137.149 66.919C137.149 72.7154 141.848 77.4143 147.645 77.4143Z" fill="white"/>
<path d="M232.037 86.0387C237.203 86.0387 241.391 81.8508 241.391 76.6846C241.391 71.5185 237.203 67.3306 232.037 67.3306C226.871 67.3306 222.683 71.5185 222.683 76.6846C222.683 81.8508 226.871 86.0387 232.037 86.0387Z" fill="white"/>
<path d="M251.119 42.0933C251.119 49.6048 245.03 55.6941 237.518 55.6941C230.007 55.6941 223.918 49.6048 223.918 42.0933C223.918 34.5818 230.007 28.4925 237.518 28.4925C245.03 28.4925 251.119 34.5818 251.119 42.0933Z" fill="white"/>
<path d="M205.864 65.3101C211.661 65.3101 216.36 60.6112 216.36 54.8148C216.36 49.0185 211.661 44.3196 205.864 44.3196C200.068 44.3196 195.369 49.0185 195.369 54.8148C195.369 60.6112 200.068 65.3101 205.864 65.3101Z" fill="white"/>
<path d="M280.117 105.476C285.283 105.476 289.471 101.289 289.471 96.1224C289.471 90.9563 285.283 86.7683 280.117 86.7683C274.951 86.7683 270.763 90.9563 270.763 96.1224C270.763 101.289 274.951 105.476 280.117 105.476Z" fill="white"/>
<path d="M312.014 66.2455C312.014 73.757 305.925 79.8463 298.413 79.8463C290.902 79.8463 284.813 73.757 284.813 66.2455C284.813 58.734 290.902 52.6447 298.413 52.6447C305.925 52.6447 312.014 58.734 312.014 66.2455Z" fill="white"/>
<path d="M264.309 76.3853C270.105 76.3853 274.804 71.6864 274.804 65.8901C274.804 60.0937 270.105 55.3948 264.309 55.3948C258.512 55.3948 253.813 60.0937 253.813 65.8901C253.813 71.6864 258.512 76.3853 264.309 76.3853Z" fill="white"/>
<path d="M295.813 30.1201C295.813 38.7992 288.777 45.8349 280.098 45.8349C271.419 45.8349 264.383 38.7992 264.383 30.1201C264.383 21.441 271.419 14.4053 280.098 14.4053C288.777 14.4053 295.813 21.441 295.813 30.1201Z" fill="white"/>
<path d="M317.084 141.826C322.25 141.826 326.438 137.638 326.438 132.472C326.438 127.306 322.25 123.118 317.084 123.118C311.918 123.118 307.73 127.306 307.73 132.472C307.73 137.638 311.918 141.826 317.084 141.826Z" fill="white"/>
<path d="M359.009 111.875C359.009 119.386 352.92 125.475 345.408 125.475C337.897 125.475 331.807 119.386 331.807 111.875C331.807 104.363 337.897 98.2738 345.408 98.2738C352.92 98.2738 359.009 104.363 359.009 111.875Z" fill="white"/>
<path d="M314.053 108.994C319.85 108.994 324.549 104.295 324.549 98.4983C324.549 92.702 319.85 88.0031 314.053 88.0031C308.257 88.0031 303.558 92.702 303.558 98.4983C303.558 104.295 308.257 108.994 314.053 108.994Z" fill="white"/>
<path d="M358.036 71.4838C358.036 80.1628 351 87.1986 342.321 87.1986C333.642 87.1986 326.607 80.1628 326.607 71.4838C326.607 62.8047 333.642 55.7689 342.321 55.7689C351 55.7689 358.036 62.8047 358.036 71.4838Z" fill="white"/>
<path d="M337.326 189.551C342.492 189.551 346.68 185.363 346.68 180.197C346.68 175.031 342.492 170.843 337.326 170.843C332.16 170.843 327.972 175.031 327.972 180.197C327.972 185.363 332.16 189.551 337.326 189.551Z" fill="white"/>
<path d="M384.995 172.021C384.995 179.533 378.905 185.622 371.394 185.622C363.882 185.622 357.793 179.533 357.793 172.021C357.793 164.51 363.882 158.42 371.394 158.42C378.905 158.42 384.995 164.51 384.995 172.021Z" fill="white"/>
<path d="M347.522 158.14C353.319 158.14 358.018 153.441 358.018 147.645C358.018 141.848 353.319 137.149 347.522 137.149C341.726 137.149 337.027 141.848 337.027 147.645C337.027 153.441 341.726 158.14 347.522 158.14Z" fill="white"/>
<path d="M399.699 133.52C399.699 142.199 392.664 149.235 383.984 149.235C375.305 149.235 368.27 142.199 368.27 133.52C368.27 124.841 375.305 117.805 383.984 117.805C392.664 117.805 399.699 124.841 399.699 133.52Z" fill="white"/>
<path d="M337.757 241.391C342.923 241.391 347.111 237.203 347.111 232.037C347.111 226.871 342.923 222.683 337.757 222.683C332.591 222.683 328.403 226.871 328.403 232.037C328.403 237.203 332.591 241.391 337.757 241.391Z" fill="white"/>
<path d="M385.967 237.518C385.967 245.03 379.878 251.119 372.367 251.119C364.855 251.119 358.766 245.03 358.766 237.518C358.766 230.007 364.855 223.918 372.367 223.918C379.878 223.918 385.967 230.007 385.967 237.518Z" fill="white"/>
<path d="M359.645 216.36C365.442 216.36 370.14 211.661 370.14 205.864C370.14 200.068 365.442 195.369 359.645 195.369C353.849 195.369 349.15 200.068 349.15 205.864C349.15 211.661 353.849 216.36 359.645 216.36Z" fill="white"/>
<path d="M414.46 206.762C414.46 215.441 407.424 222.477 398.745 222.477C390.066 222.477 383.03 215.441 383.03 206.762C383.03 198.083 390.066 191.047 398.745 191.047C407.424 191.047 414.46 198.083 414.46 206.762Z" fill="white"/>
<path d="M318.319 289.471C323.485 289.471 327.673 285.283 327.673 280.117C327.673 274.951 323.485 270.763 318.319 270.763C313.153 270.763 308.965 274.951 308.965 280.117C308.965 285.283 313.153 289.471 318.319 289.471Z" fill="white"/>
<path d="M361.797 298.413C361.797 305.925 355.707 312.014 348.196 312.014C340.684 312.014 334.595 305.925 334.595 298.413C334.595 290.902 340.684 284.813 348.196 284.813C355.707 284.813 361.797 290.902 361.797 298.413Z" fill="white"/>
<path d="M348.57 274.804C354.366 274.804 359.065 270.105 359.065 264.309C359.065 258.512 354.366 253.813 348.57 253.813C342.774 253.813 338.075 258.512 338.075 264.309C338.075 270.105 342.774 274.804 348.57 274.804Z" fill="white"/>
<path d="M400.055 280.098C400.055 288.777 393.019 295.813 384.34 295.813C375.661 295.813 368.625 288.777 368.625 280.098C368.625 271.419 375.661 264.383 384.34 264.383C393.019 264.383 400.055 271.419 400.055 280.098Z" fill="white"/>
<path d="M281.988 326.438C287.154 326.438 291.342 322.25 291.342 317.084C291.342 311.918 287.154 307.73 281.988 307.73C276.822 307.73 272.634 311.918 272.634 317.084C272.634 322.25 276.822 326.438 281.988 326.438Z" fill="white"/>
<path d="M316.186 345.408C316.186 352.92 310.097 359.009 302.585 359.009C295.074 359.009 288.985 352.92 288.985 345.408C288.985 337.897 295.074 331.807 302.585 331.807C310.097 331.807 316.186 337.897 316.186 345.408Z" fill="white"/>
<path d="M315.962 324.549C321.758 324.549 326.457 319.85 326.457 314.053C326.457 308.257 321.758 303.558 315.962 303.558C310.165 303.558 305.466 308.257 305.466 314.053C305.466 319.85 310.165 324.549 315.962 324.549Z" fill="white"/>
<path d="M358.691 342.321C358.691 351.001 351.655 358.036 342.976 358.036C334.297 358.036 327.261 351.001 327.261 342.321C327.261 333.642 334.297 326.607 342.976 326.607C351.655 326.607 358.691 333.642 358.691 342.321Z" fill="white"/>
<path d="M234.245 346.68C239.411 346.68 243.599 342.492 243.599 337.326C243.599 332.16 239.411 327.972 234.245 327.972C229.078 327.972 224.89 332.16 224.89 337.326C224.89 342.492 229.078 346.68 234.245 346.68Z" fill="white"/>
<path d="M256.039 371.394C256.039 378.905 249.95 384.995 242.439 384.995C234.927 384.995 228.838 378.905 228.838 371.394C228.838 363.882 234.927 357.793 242.439 357.793C249.95 357.793 256.039 363.882 256.039 371.394Z" fill="white"/>
<path d="M266.815 358.018C272.612 358.018 277.311 353.319 277.311 347.522C277.311 341.726 272.612 337.027 266.815 337.027C261.019 337.027 256.32 341.726 256.32 347.522C256.32 353.319 261.019 358.018 266.815 358.018Z" fill="white"/>
<path d="M296.655 383.984C296.655 392.664 289.619 399.699 280.94 399.699C272.261 399.699 265.225 392.664 265.225 383.984C265.225 375.305 272.261 368.27 280.94 368.27C289.619 368.27 296.655 375.305 296.655 383.984Z" fill="white"/>
</svg>